# Blender 4.4.0
# www.blender.org
mtllib Box.mtl
o Box
v 1.268151 -1.450692 0.845162
v -0.782865 -1.450692 -1.205855
v 1.268151 -1.354702 0.845162
v -0.782865 -1.354702 -1.205855
v 0.934645 -1.450692 1.178668
v -1.116371 -1.450691 -0.872348
v 0.934645 -1.354702 1.178668
v -1.116371 -1.354702 -0.872348
v -0.782865 -1.450691 1.178668
v 1.268152 -1.450692 -0.872348
v -0.782865 -1.354702 1.178668
v 1.268152 -1.354702 -0.872348
v -1.116371 -1.450691 0.845162
v 0.934645 -1.450692 -1.205855
v -1.116371 -1.354702 0.845162
v 0.934645 -1.354702 -1.205855
v 1.381546 1.339041 -1.379620
v 1.381546 -1.262516 -1.379620
v 1.400392 1.310608 1.300830
v 1.400392 -1.290926 1.300830
v -1.220012 1.339041 -1.379620
v -1.220012 -1.262516 -1.379620
v -1.220011 1.336675 1.379620
v -1.220011 -1.264859 1.379620
v 1.455524 -1.264809 -1.300830
v -1.298853 -1.262516 -1.300779
v 1.455524 1.336726 -1.300830
v -1.298853 1.339041 -1.300779
v 1.376639 1.417908 -1.300776
v 1.376639 -1.341333 -1.300776
v 1.316687 1.310658 1.379620
v 1.316687 -1.290875 1.379620
v -1.298853 -1.262516 1.300779
v -1.298853 1.339041 1.300779
v 1.321497 1.389462 1.300776
v 1.321497 -1.369779 1.300776
v -1.220021 -1.343687 -1.300788
v -1.220009 -1.341358 1.300788
v -1.220009 1.417883 1.300788
v -1.220020 1.415554 -1.300788
v 1.546236 1.537865 1.530328
v -1.449561 1.568590 1.530328
v 1.611095 1.568590 -1.530328
v -1.449561 1.568590 -1.530328
v -1.449561 -1.492065 -1.530328
v -1.449561 -1.492066 1.530328
v 1.611095 -1.492066 -1.530328
v 1.546236 -1.522791 1.530328
v -0.809981 1.192261 -1.379620
v 1.241035 -0.858755 -1.379620
v -0.809981 1.192261 -1.475610
v 1.241036 -0.858755 -1.475610
v -1.143487 0.858755 -1.379620
v 0.907529 -1.192261 -1.379620
v -1.143487 0.858755 -1.475610
v 0.907529 -1.192261 -1.475610
v -1.143487 -0.858755 -1.379620
v 0.907529 1.192261 -1.379620
v -1.143487 -0.858755 -1.475610
v 0.907529 1.192261 -1.475610
v -0.809981 -1.192261 -1.379620
v 1.241035 0.858755 -1.379620
v -0.809981 -1.192261 -1.475610
v 1.241035 0.858755 -1.475610
v -0.809981 1.192262 1.475610
v 1.241035 -0.858755 1.475610
v -0.809981 1.192262 1.379620
v 1.241035 -0.858755 1.379620
v -1.143487 0.858755 1.475610
v 0.907529 -1.192261 1.475610
v -1.143487 0.858755 1.379620
v 0.907529 -1.192261 1.379620
v -1.143487 -0.858755 1.475610
v 0.907529 1.192261 1.475610
v -1.143487 -0.858755 1.379620
v 0.907529 1.192261 1.379620
v -0.809981 -1.192261 1.475610
v 1.241035 0.858755 1.475610
v -0.809981 -1.192261 1.379620
v 1.241035 0.858755 1.379620
v -1.298853 1.192262 0.845162
v -1.298853 -0.858755 -1.205854
v -1.394843 1.192262 0.845162
v -1.394843 -0.858755 -1.205854
v -1.298853 0.858755 1.178668
v -1.298853 -1.192261 -0.872348
v -1.394843 0.858755 1.178668
v -1.394843 -1.192261 -0.872348
v -1.298853 -0.858755 1.178668
v -1.298853 1.192261 -0.872349
v -1.394843 -0.858755 1.178668
v -1.394843 1.192261 -0.872349
v -1.298853 -1.192261 0.845162
v -1.298853 0.858755 -1.205855
v -1.394843 -1.192261 0.845162
v -1.394843 0.858755 -1.205855
v 1.480773 1.192261 0.845162
v 1.480773 -0.858755 -1.205855
v 1.384783 1.192261 0.845162
v 1.384783 -0.858755 -1.205855
v 1.480773 0.858756 1.178668
v 1.480773 -1.192261 -0.872348
v 1.384783 0.858756 1.178668
v 1.384783 -1.192261 -0.872348
v 1.480773 -0.858755 1.178668
v 1.480773 1.192261 -0.872349
v 1.384783 -0.858755 1.178668
v 1.384783 1.192261 -0.872349
v 1.480773 -1.192261 0.845162
v 1.480773 0.858755 -1.205855
v 1.384783 -1.192261 0.845162
v 1.384783 0.858755 -1.205855
v 1.268151 1.395139 0.845162
v -0.782865 1.395139 -1.205855
v 1.268151 1.491129 0.845162
v -0.782865 1.491129 -1.205855
v 0.934645 1.395139 1.178668
v -1.116371 1.395139 -0.872349
v 0.934645 1.491129 1.178668
v -1.116371 1.491129 -0.872349
v -0.782865 1.395139 1.178668
v 1.268151 1.395139 -0.872349
v -0.782865 1.491129 1.178668
v 1.268151 1.491129 -0.872349
v -1.116371 1.395139 0.845162
v 0.934645 1.395139 -1.205855
v -1.116371 1.491129 0.845162
v 0.934645 1.491129 -1.205855
vn 0.7071 -0.0000 -0.7071
vn -0.0000 1.0000 -0.0000
vn -0.7071 -0.0000 0.7071
vn -0.0000 -1.0000 -0.0000
vn 0.7071 -0.0000 0.7071
vn -0.7071 -0.0000 -0.7071
vn 0.0051 1.0000 0.0051
vn -0.0000 -0.0000 1.0000
vn -1.0000 -0.0000 -0.0000
vn -0.0051 -1.0000 -0.0051
vn 0.9998 -0.0000 0.0212
vn -0.0000 -0.0000 -1.0000
vn -0.0000 0.5488 -0.8359
vn -0.5488 -0.0000 -0.8359
vn 0.5488 -0.0000 -0.8359
vn -0.0000 -0.5488 -0.8359
vn 0.8277 -0.0000 0.5611
vn 0.8440 -0.0000 -0.5364
vn 0.8359 -0.5488 0.0122
vn 0.8357 0.5487 0.0232
vn 0.5488 -0.0000 0.8359
vn -0.5488 -0.0000 0.8359
vn -0.0056 -0.5488 0.8359
vn 0.0056 0.5488 0.8359
vn -0.8359 0.5488 -0.0000
vn -0.8359 -0.0000 -0.5488
vn -0.8359 -0.0000 0.5488
vn -0.8359 -0.5488 -0.0000
vn 0.0089 0.8379 -0.5458
vn -0.5458 0.8379 -0.0028
vn 0.5518 0.8340 -0.0003
vn -0.0003 0.8340 0.5517
vn 0.5459 -0.8379 0.0003
vn 0.0003 -0.8379 0.5459
vn -0.0089 -0.8339 -0.5518
vn -0.5516 -0.8339 -0.0204
vn 0.7071 0.7071 -0.0000
vn -0.7071 -0.7071 -0.0000
vn -0.7071 0.7071 -0.0000
vn 0.7071 -0.7071 -0.0000
vn -0.0000 0.7071 -0.7071
vn -0.0000 -0.7071 0.7071
vn 1.0000 -0.0000 -0.0000
vn -0.0000 0.7071 0.7071
vn -0.0000 -0.7071 -0.7071
vt 0.013400 0.016802
vt 0.263400 0.016802
vt 0.269800 0.514026
vt 0.019800 0.514026
vt 0.025000 0.504800
vt 0.272600 0.514401
vt 0.020200 0.255551
vt 0.267800 0.265152
vt 0.265000 0.517552
vt 0.015000 0.517552
vt 0.016200 0.267177
vt 0.016200 0.517177
vt 0.268600 0.257576
vt 0.268600 0.507576
vt 0.024600 0.014401
vt 0.274600 0.014401
vt 0.271400 0.523627
vt 0.021400 0.523627
vt 0.015400 0.516802
vt 0.263000 0.526403
vt 0.018600 0.257951
vt 0.266200 0.267552
vt 0.263400 0.519952
vt 0.013400 0.519952
vt 0.580643 0.492003
vt 0.708617 0.492004
vt 0.708470 0.620076
vt 0.580790 0.620076
vt 0.429921 0.642921
vt 0.557992 0.642922
vt 0.557992 0.770504
vt 0.429921 0.770504
vt 0.429920 0.190657
vt 0.557992 0.190657
vt 0.557992 0.318730
vt 0.429920 0.318730
vt 0.279296 0.492004
vt 0.407269 0.492003
vt 0.407123 0.620076
vt 0.279442 0.620076
vt 0.429921 0.492001
vt 0.557992 0.492001
vt 0.557992 0.620078
vt 0.429921 0.620078
vt 0.429920 0.341331
vt 0.557992 0.341331
vt 0.557992 0.469403
vt 0.429920 0.469403
vt 0.418620 0.480703
vt 0.418620 0.330030
vt 0.569293 0.480703
vt 0.569293 0.330030
vt 0.569293 0.631376
vt 0.418620 0.631376
vt 0.569293 0.782049
vt 0.418620 0.782049
vt 0.418620 0.179357
vt 0.569293 0.179357
vt 0.719966 0.631376
vt 0.719966 0.480703
vt 0.267947 0.631376
vt 0.267947 0.480703
vt 0.449133 0.364725
vt 0.453551 0.364725
vt 0.453607 0.373596
vt 0.449190 0.373596
vt 0.449281 0.373433
vt 0.453657 0.373603
vt 0.449197 0.368986
vt 0.453572 0.369156
vt 0.453522 0.373616
vt 0.449105 0.373616
vt 0.449182 0.369149
vt 0.449182 0.373567
vt 0.453643 0.368980
vt 0.453643 0.373397
vt 0.449253 0.368986
vt 0.453628 0.369156
vt 0.453579 0.373616
vt 0.449161 0.373616
vt 0.265000 0.516427
vt 0.015000 0.516427
vt 0.020200 0.507201
vt 0.267800 0.516802
vt 0.020200 0.257951
vt 0.267800 0.267552
vt 0.265000 0.519952
vt 0.015000 0.519952
vt 0.263400 0.516427
vt 0.013400 0.516427
vt 0.018600 0.507201
vt 0.266200 0.516802
vt 0.021800 0.257951
vt 0.269400 0.267552
vt 0.266600 0.519952
vt 0.016600 0.519952
vt 0.263400 0.518827
vt 0.013400 0.518827
vt 0.018600 0.509601
vt 0.266200 0.519202
vt 0.021800 0.255551
vt 0.269400 0.265152
vt 0.266600 0.517552
vt 0.016600 0.517552
vt 0.265000 0.518827
vt 0.015000 0.518827
vt 0.020200 0.509601
vt 0.267800 0.519202
vt 0.020200 0.260351
vt 0.267800 0.269952
vt 0.265000 0.522352
vt 0.015000 0.522352
vt 0.263400 0.526028
vt 0.013400 0.526028
vt 0.018600 0.516802
vt 0.266200 0.526403
vt 0.266600 0.517552
vt 0.016600 0.517552
vt 0.265000 0.523627
vt 0.015000 0.523627
vt 0.020200 0.514401
vt 0.267800 0.524002
vt 0.021800 0.260351
vt 0.269400 0.269952
vt 0.266600 0.522352
vt 0.016600 0.522352
vt 0.271400 0.518827
vt 0.021400 0.518827
vt 0.026600 0.509601
vt 0.274200 0.519202
vt 0.023400 0.255551
vt 0.271000 0.265152
vt 0.268200 0.517552
vt 0.018200 0.517552
vt 0.265000 0.509226
vt 0.015000 0.509226
vt 0.020200 0.500000
vt 0.267800 0.509601
s 0
usemtl Material.004
f 1/1/1 2/2/1 4/3/1 3/4/1
f 3/4/2 4/3/2 8/5/2 7/6/2
f 7/6/3 8/5/3 6/7/3 5/8/3
f 5/8/4 6/7/4 2/9/4 1/10/4
f 3/11/5 7/6/5 5/8/5 1/12/5
f 8/5/6 4/13/6 2/14/6 6/7/6
f 9/15/5 10/16/5 12/17/5 11/18/5
f 11/18/2 12/17/2 16/19/2 15/20/2
f 15/20/6 16/19/6 14/21/6 13/22/6
f 13/22/4 14/21/4 10/23/4 9/24/4
f 11/11/3 15/20/3 13/22/3 9/12/3
f 16/19/1 12/13/1 10/14/1 14/21/1
f 49/63/37 50/64/37 52/65/37 51/66/37
f 51/66/12 52/65/12 56/67/12 55/68/12
f 55/68/38 56/67/38 54/69/38 53/70/38
f 53/70/8 54/69/8 50/71/8 49/72/8
f 51/73/39 55/68/39 53/70/39 49/74/39
f 56/67/40 52/75/40 50/76/40 54/69/40
f 57/63/39 58/64/39 60/65/39 59/66/39
f 59/66/12 60/65/12 64/67/12 63/68/12
f 63/68/40 64/67/40 62/77/40 61/78/40
f 61/78/8 62/77/8 58/79/8 57/80/8
f 59/73/38 63/68/38 61/78/38 57/74/38
f 64/67/37 60/75/37 58/76/37 62/77/37
f 65/1/37 66/2/37 68/81/37 67/82/37
f 67/82/12 68/81/12 72/83/12 71/84/12
f 71/84/38 72/83/38 70/85/38 69/86/38
f 69/86/8 70/85/8 66/87/8 65/88/8
f 67/11/39 71/84/39 69/86/39 65/12/39
f 72/83/40 68/13/40 66/14/40 70/85/40
f 73/1/39 74/2/39 76/89/39 75/90/39
f 75/90/12 76/89/12 80/91/12 79/92/12
f 79/92/40 80/91/40 78/93/40 77/94/40
f 77/94/8 78/93/8 74/95/8 73/96/8
f 75/11/38 79/92/38 77/94/38 73/12/38
f 80/91/37 76/13/37 74/14/37 78/93/37
f 81/1/41 82/2/41 84/97/41 83/98/41
f 83/98/9 84/97/9 88/99/9 87/100/9
f 87/100/42 88/99/42 86/101/42 85/102/42
f 85/102/43 86/101/43 82/103/43 81/104/43
f 83/11/44 87/100/44 85/102/44 81/12/44
f 88/99/45 84/13/45 82/14/45 86/101/45
f 89/1/44 90/2/44 92/105/44 91/106/44
f 91/106/9 92/105/9 96/107/9 95/108/9
f 95/108/45 96/107/45 94/109/45 93/110/45
f 93/110/43 94/109/43 90/111/43 89/112/43
f 91/11/42 95/108/42 93/110/42 89/12/42
f 96/107/41 92/13/41 90/14/41 94/109/41
f 97/1/41 98/2/41 100/113/41 99/114/41
f 99/114/9 100/113/9 104/115/9 103/116/9
f 103/116/42 104/115/42 102/101/42 101/102/42
f 101/102/43 102/101/43 98/117/43 97/118/43
f 99/11/44 103/116/44 101/102/44 97/12/44
f 104/115/45 100/13/45 98/14/45 102/101/45
f 105/1/44 106/2/44 108/119/44 107/120/44
f 107/120/9 108/119/9 112/121/9 111/122/9
f 111/122/45 112/121/45 110/123/45 109/124/45
f 109/124/43 110/123/43 106/125/43 105/126/43
f 107/11/42 111/122/42 109/124/42 105/12/42
f 112/121/41 108/13/41 106/14/41 110/123/41
f 113/1/1 114/2/1 116/127/1 115/128/1
f 115/128/2 116/127/2 120/129/2 119/130/2
f 119/130/3 120/129/3 118/131/3 117/132/3
f 117/132/4 118/131/4 114/133/4 113/134/4
f 115/11/5 119/130/5 117/132/5 113/12/5
f 120/129/6 116/13/6 114/14/6 118/131/6
f 121/1/5 122/2/5 124/135/5 123/136/5
f 123/136/2 124/135/2 128/137/2 127/138/2
f 127/138/6 128/137/6 126/93/6 125/94/6
f 125/94/4 126/93/4 122/95/4 121/96/4
f 123/11/3 127/138/3 125/94/3 121/12/3
f 128/137/1 124/13/1 122/14/1 126/93/1
usemtl Material.003
f 29/25/7 40/26/7 39/27/7 35/28/7
f 32/29/8 31/30/8 23/31/8 24/32/8
f 33/33/9 34/34/9 28/35/9 26/36/9
f 37/37/10 30/38/10 36/39/10 38/40/10
f 25/41/11 27/42/11 19/43/11 20/44/11
f 22/45/12 21/46/12 17/47/12 18/48/12
f 22/45/13 18/48/13 47/49/13 45/50/13
f 18/48/14 17/47/14 43/51/14 47/49/14
f 21/46/15 22/45/15 45/50/15 44/52/15
f 17/47/16 21/46/16 44/52/16 43/51/16
f 27/42/17 25/41/17 47/49/17 43/51/17
f 20/44/18 19/43/18 41/53/18 48/54/18
f 19/43/19 27/42/19 43/51/19 41/53/19
f 25/41/20 20/44/20 48/54/20 47/49/20
f 24/32/21 23/31/21 42/55/21 46/56/21
f 31/30/22 32/29/22 48/54/22 41/53/22
f 23/31/23 31/30/23 41/53/23 42/55/23
f 32/29/24 24/32/24 46/56/24 48/54/24
f 33/33/25 26/36/25 45/50/25 46/57/25
f 34/34/26 33/33/26 46/57/26 42/58/26
f 26/36/27 28/35/27 44/52/27 45/50/27
f 28/35/28 34/34/28 42/58/28 44/52/28
f 35/28/29 39/27/29 42/59/29 41/53/29
f 29/25/30 35/28/30 41/53/30 43/51/30
f 39/27/31 40/26/31 44/60/31 42/59/31
f 40/26/32 29/25/32 43/51/32 44/60/32
f 37/37/33 38/40/33 46/61/33 45/62/33
f 30/38/34 37/37/34 45/62/34 47/49/34
f 38/40/35 36/39/35 48/54/35 46/61/35
f 36/39/36 30/38/36 47/49/36 48/54/36
